<svg xmlns="http://www.w3.org/2000/svg" xmlns:xlink="http://www.w3.org/1999/xlink" width="500" zoomAndPan="magnify" viewBox="0 0 375 374.999991" height="500" preserveAspectRatio="xMidYMid meet" version="1.0"><defs><clipPath id="67aa6b2d16"><path d="M 19.644531 19.644531 L 355.351562 19.644531 L 355.351562 355.351562 L 19.644531 355.351562 Z M 19.644531 19.644531 " clip-rule="nonzero"/></clipPath><clipPath id="d0d45344e8"><path d="M 187.5 19.644531 C 94.796875 19.644531 19.644531 94.796875 19.644531 187.5 C 19.644531 280.203125 94.796875 355.351562 187.5 355.351562 C 280.203125 355.351562 355.351562 280.203125 355.351562 187.5 C 355.351562 94.796875 280.203125 19.644531 187.5 19.644531 Z M 187.5 19.644531 " clip-rule="nonzero"/></clipPath><clipPath id="9a0bc3d884"><path d="M 90 117 L 285 117 L 285 215 L 90 215 Z M 90 117 " clip-rule="nonzero"/></clipPath><clipPath id="e0d5ec7e1f"><path d="M 284.769531 67.941406 L 285.488281 306.441406 L 90.488281 307.027344 L 89.773438 68.53125 Z M 284.769531 67.941406 " clip-rule="nonzero"/></clipPath><clipPath id="d02be99e2a"><path d="M 284.769531 67.941406 L 285.488281 306.441406 L 90.488281 307.027344 L 89.773438 68.53125 Z M 284.769531 67.941406 " clip-rule="nonzero"/></clipPath><clipPath id="ffc420db8c"><path d="M 284.769531 67.941406 L 285.488281 306.441406 L 90.488281 307.027344 L 89.773438 68.53125 Z M 284.769531 67.941406 " clip-rule="nonzero"/></clipPath><clipPath id="5eb30daaa2"><path d="M 138 68 L 264 68 L 264 307 L 138 307 Z M 138 68 " clip-rule="nonzero"/></clipPath><clipPath id="9a21d901f0"><path d="M 284.769531 67.941406 L 285.488281 306.441406 L 90.488281 307.027344 L 89.773438 68.53125 Z M 284.769531 67.941406 " clip-rule="nonzero"/></clipPath><clipPath id="33ca314f4b"><path d="M 284.769531 67.941406 L 285.488281 306.441406 L 90.488281 307.027344 L 89.773438 68.53125 Z M 284.769531 67.941406 " clip-rule="nonzero"/></clipPath><clipPath id="a81a5fe678"><path d="M 284.769531 67.941406 L 285.488281 306.441406 L 90.488281 307.027344 L 89.773438 68.53125 Z M 284.769531 67.941406 " clip-rule="nonzero"/></clipPath><clipPath id="43d1301dde"><path d="M 141 119 L 230 119 L 230 213 L 141 213 Z M 141 119 " clip-rule="nonzero"/></clipPath><clipPath id="2a57c1d00a"><path d="M 284.769531 67.941406 L 285.488281 306.441406 L 90.488281 307.027344 L 89.773438 68.53125 Z M 284.769531 67.941406 " clip-rule="nonzero"/></clipPath><clipPath id="ef389047cc"><path d="M 284.769531 67.941406 L 285.488281 306.441406 L 90.488281 307.027344 L 89.773438 68.53125 Z M 284.769531 67.941406 " clip-rule="nonzero"/></clipPath><clipPath id="6fd6f08365"><path d="M 284.769531 67.941406 L 285.488281 306.441406 L 90.488281 307.027344 L 89.773438 68.53125 Z M 284.769531 67.941406 " clip-rule="nonzero"/></clipPath><clipPath id="5979b157a7"><path d="M 137 119 L 244 119 L 244 214 L 137 214 Z M 137 119 " clip-rule="nonzero"/></clipPath><clipPath id="8ac6492fd1"><path d="M 284.769531 67.941406 L 285.488281 306.441406 L 90.488281 307.027344 L 89.773438 68.53125 Z M 284.769531 67.941406 " clip-rule="nonzero"/></clipPath><clipPath id="e9704fa55f"><path d="M 284.769531 67.941406 L 285.488281 306.441406 L 90.488281 307.027344 L 89.773438 68.53125 Z M 284.769531 67.941406 " clip-rule="nonzero"/></clipPath><clipPath id="3dcbbf2359"><path d="M 284.769531 67.941406 L 285.488281 306.441406 L 90.488281 307.027344 L 89.773438 68.53125 Z M 284.769531 67.941406 " clip-rule="nonzero"/></clipPath><clipPath id="467da0ae7a"><path d="M 140 116 L 240 116 L 240 217 L 140 217 Z M 140 116 " clip-rule="nonzero"/></clipPath><clipPath id="7941834ac7"><path d="M 284.769531 67.941406 L 285.488281 306.441406 L 90.488281 307.027344 L 89.773438 68.53125 Z M 284.769531 67.941406 " clip-rule="nonzero"/></clipPath><clipPath id="96c8c4de21"><path d="M 284.769531 67.941406 L 285.488281 306.441406 L 90.488281 307.027344 L 89.773438 68.53125 Z M 284.769531 67.941406 " clip-rule="nonzero"/></clipPath><clipPath id="d636eed374"><path d="M 284.769531 67.941406 L 285.488281 306.441406 L 90.488281 307.027344 L 89.773438 68.53125 Z M 284.769531 67.941406 " clip-rule="nonzero"/></clipPath></defs><g clip-path="url(#67aa6b2d16)"><g clip-path="url(#d0d45344e8)"><path stroke-linecap="butt" transform="matrix(0.75, 0, 0, 0.75, 19.645944, 19.645939)" fill="none" stroke-linejoin="miter" d="M 223.805423 -0.00187747 C 100.201248 -0.00187747 -0.00188347 100.201254 -0.00188347 223.805429 C -0.00188347 347.409604 100.201248 447.607527 223.805423 447.607527 C 347.409598 447.607527 447.607521 347.409604 447.607521 223.805429 C 447.607521 100.201254 347.409598 -0.00187747 223.805423 -0.00187747 Z M 223.805423 -0.00187747 " stroke="#05685e" stroke-width="6" stroke-opacity="1" stroke-miterlimit="4"/></g></g><g clip-path="url(#9a0bc3d884)"><g clip-path="url(#e0d5ec7e1f)"><g clip-path="url(#d02be99e2a)"><g clip-path="url(#ffc420db8c)"><path fill="#068276" d="M 240.207031 200.882812 L 249.457031 200.855469 C 259.101562 200.824219 268.445312 196.789062 275.085938 189.785156 C 281.695312 182.808594 285.078125 173.71875 284.601562 164.191406 C 283.675781 145.550781 268.335938 130.992188 249.679688 131.046875 L 235.671875 131.089844 C 235.671875 131.089844 214.203125 133.101562 213.644531 120.230469 C 213.933594 130.949219 222.746094 139.566406 233.507812 139.535156 L 249.707031 139.484375 C 263.851562 139.441406 275.480469 150.480469 276.183594 164.613281 C 276.539062 171.816406 273.976562 178.6875 268.96875 183.976562 C 263.910156 189.320312 256.785156 192.394531 249.433594 192.417969 L 240.179688 192.445312 C 240.019531 192.445312 239.859375 192.449219 239.707031 192.453125 C 226.855469 193.015625 228.863281 214.503906 228.863281 214.503906 L 228.855469 212.316406 C 228.839844 206.03125 233.929688 200.902344 240.207031 200.882812 M 152.34375 117.8125 C 152.34375 117.8125 154.210938 137.808594 142.816406 139.726562 C 142.226562 139.78125 141.628906 139.8125 141.023438 139.8125 L 125.265625 139.859375 C 117.90625 139.882812 110.785156 142.960938 105.722656 148.304688 C 100.710938 153.589844 98.152344 160.472656 98.511719 167.664062 C 99.210938 181.800781 110.839844 192.832031 124.988281 192.792969 L 141.183594 192.742188 C 151.945312 192.710938 160.761719 201.324219 161.042969 212.042969 C 160.488281 199.175781 139.023438 201.1875 139.023438 201.1875 L 125.011719 201.230469 C 106.359375 201.285156 91.019531 186.726562 90.09375 168.085938 C 90.066406 167.53125 90.050781 166.980469 90.050781 166.433594 C 90.023438 157.515625 93.382812 149.070312 99.609375 142.496094 C 106.25 135.488281 115.589844 131.449219 125.238281 131.421875 L 141 131.375 C 147.277344 131.355469 152.367188 126.226562 152.351562 119.941406 L 152.34375 117.8125 " fill-opacity="1" fill-rule="nonzero"/></g></g></g></g><g clip-path="url(#5eb30daaa2)"><g clip-path="url(#9a21d901f0)"><g clip-path="url(#33ca314f4b)"><g clip-path="url(#a81a5fe678)"><path fill="#00a79d" d="M 156.230469 261.972656 C 151.242188 261.984375 147.1875 257.949219 147.171875 252.957031 C 147.15625 247.964844 151.1875 243.902344 156.175781 243.890625 C 161.160156 243.875 165.214844 247.910156 165.230469 252.902344 C 165.246094 257.894531 161.214844 261.957031 156.230469 261.972656 M 160.773438 119.914062 C 160.804688 130.25 152.902344 138.789062 142.816406 139.726562 C 154.210938 137.808594 152.34375 117.8125 152.34375 117.8125 L 152.300781 104.160156 C 152.273438 94.5 156.246094 85.121094 163.207031 78.433594 C 170.132812 71.773438 179.1875 68.332031 188.703125 68.75 C 207.328125 69.566406 221.960938 84.835938 222.015625 103.515625 L 222.066406 119.730469 C 222.082031 126.019531 227.203125 131.113281 233.484375 131.09375 L 235.671875 131.089844 C 235.671875 131.089844 214.203125 133.101562 213.644531 120.230469 C 213.644531 120.078125 213.636719 119.917969 213.636719 119.757812 L 213.589844 103.539062 C 213.546875 89.375 202.457031 77.800781 188.335938 77.179688 C 181.144531 76.863281 174.292969 79.472656 169.042969 84.519531 C 163.738281 89.621094 160.707031 96.769531 160.726562 104.136719 L 160.773438 119.914062 M 211.503906 306.578125 L 209.382812 306.582031 C 207.195312 306.589844 205.394531 304.929688 205.167969 302.804688 C 199.964844 301.160156 195.339844 297.890625 192.078125 293.417969 C 188.839844 288.988281 187.117188 283.648438 187.101562 278.238281 C 187.097656 276.558594 187.257812 274.863281 187.582031 273.191406 C 188.773438 267.175781 190.242188 261.722656 191.980469 256.832031 C 191.179688 256.039062 190.71875 254.953125 190.714844 253.832031 C 190.714844 253.292969 190.816406 252.742188 191.039062 252.207031 C 193.359375 246.582031 196.097656 241.75 199.175781 237.835938 C 199.214844 237.785156 199.253906 237.738281 199.296875 237.691406 C 204.976562 231.097656 212.371094 226.988281 220.46875 225.847656 L 220.429688 212.34375 C 220.398438 201.5625 229 192.738281 239.707031 192.453125 C 226.855469 193.015625 228.863281 214.503906 228.863281 214.503906 L 228.898438 225.734375 C 237.289062 226.671875 244.984375 230.777344 250.875 237.535156 C 250.917969 237.582031 250.957031 237.628906 250.996094 237.679688 C 254.097656 241.574219 256.867188 246.390625 259.222656 252.003906 C 259.90625 253.636719 259.484375 255.453125 258.308594 256.625 C 260.070312 261.511719 261.578125 266.957031 262.804688 272.964844 C 264.234375 280.007812 262.640625 287.386719 258.429688 293.21875 C 255.070312 297.878906 250.25 301.25 244.820312 302.859375 C 244.53125 304.90625 242.78125 306.484375 240.660156 306.488281 L 238.53125 306.496094 C 236.199219 306.503906 234.304688 304.617188 234.300781 302.28125 C 234.292969 299.945312 236.175781 298.050781 238.507812 298.042969 L 240.632812 298.035156 C 242.082031 298.03125 243.355469 298.753906 244.121094 299.863281 C 248.839844 298.429688 253.019531 295.476562 255.949219 291.421875 C 259.660156 286.285156 261.066406 279.777344 259.796875 273.582031 C 258.617188 267.78125 257.171875 262.542969 255.488281 257.847656 C 253.789062 257.910156 252.148438 256.933594 251.453125 255.269531 C 249.414062 250.414062 247.066406 246.289062 244.472656 243.015625 C 239.324219 237.15625 232.4375 233.9375 225.074219 233.957031 C 217.707031 233.980469 210.847656 237.242188 205.734375 243.132812 C 203.160156 246.421875 200.835938 250.558594 198.828125 255.429688 C 198.140625 257.097656 196.503906 258.085938 194.800781 258.035156 C 193.144531 262.734375 191.738281 267.984375 190.59375 273.789062 C 189.363281 279.992188 190.808594 286.492188 194.550781 291.605469 C 197.40625 295.515625 201.433594 298.382812 205.980469 299.84375 C 206.746094 298.808594 207.96875 298.132812 209.355469 298.128906 L 211.480469 298.125 C 213.8125 298.117188 215.710938 300 215.71875 302.335938 C 215.722656 304.671875 213.835938 306.570312 211.503906 306.578125 M 143.984375 252.976562 C 143.964844 246.117188 149.519531 240.523438 156.367188 240.5 C 163.21875 240.480469 168.808594 246.042969 168.828125 252.902344 C 168.847656 259.757812 163.292969 265.355469 156.445312 265.375 C 149.59375 265.394531 144.007812 259.835938 143.984375 252.976562 M 174.667969 252.882812 C 174.644531 244.453125 168.894531 237.359375 161.125 235.273438 L 161.054688 212.519531 C 161.054688 212.355469 161.046875 212.199219 161.046875 212.042969 C 160.488281 199.175781 139.023438 201.1875 139.023438 201.1875 L 141.207031 201.179688 C 147.484375 201.160156 152.605469 206.257812 152.625 212.542969 L 152.695312 235.03125 C 144.378906 236.757812 138.121094 244.164062 138.144531 252.992188 C 138.175781 263.074219 146.390625 271.253906 156.460938 271.222656 C 166.53125 271.191406 174.699219 262.964844 174.667969 252.882812 " fill-opacity="1" fill-rule="nonzero"/></g></g></g></g><g clip-path="url(#43d1301dde)"><g clip-path="url(#2a57c1d00a)"><g clip-path="url(#ef389047cc)"><g clip-path="url(#6fd6f08365)"><path fill="#cccccc" d="M 141.546875 201.183594 C 142.632812 201.210938 143.683594 201.394531 144.675781 201.707031 C 144.644531 201.703125 144.613281 201.695312 144.585938 201.6875 L 144.578125 201.679688 C 143.644531 201.398438 142.664062 201.226562 141.648438 201.191406 C 141.613281 201.191406 141.582031 201.183594 141.546875 201.183594 M 151.765625 123.582031 C 151.792969 123.472656 151.816406 123.359375 151.84375 123.25 L 151.851562 123.242188 C 152.136719 122.308594 152.300781 121.324219 152.339844 120.308594 C 152.339844 120.285156 152.34375 120.257812 152.34375 120.234375 C 152.320312 121.402344 152.117188 122.527344 151.765625 123.582031 M 152.425781 119.144531 C 152.4375 119.480469 152.449219 119.871094 152.457031 120.304688 C 152.449219 119.871094 152.4375 119.480469 152.425781 119.144531 M 228.859375 212.050781 C 228.882812 210.910156 229.070312 209.808594 229.40625 208.769531 C 229.394531 208.828125 229.378906 208.882812 229.367188 208.9375 L 229.363281 208.945312 C 229.078125 209.878906 228.910156 210.859375 228.875 211.875 C 228.871094 211.933594 228.863281 211.992188 228.859375 212.050781 " fill-opacity="1" fill-rule="nonzero"/></g></g></g></g><g clip-path="url(#5979b157a7)"><g clip-path="url(#8ac6492fd1)"><g clip-path="url(#e9704fa55f)"><g clip-path="url(#3dcbbf2359)"><path fill="#05685e" d="M 137.359375 139.742188 C 144.457031 137.082031 149.910156 131.039062 151.765625 123.582031 C 152.117188 122.527344 152.320312 121.402344 152.34375 120.234375 C 152.382812 119.875 152.410156 119.507812 152.425781 119.144531 C 152.4375 119.480469 152.449219 119.871094 152.457031 120.304688 C 152.457031 120.421875 152.457031 120.542969 152.457031 120.664062 C 152.476562 126.292969 151.472656 138.191406 142.816406 139.644531 C 142.226562 139.703125 141.628906 139.730469 141.023438 139.730469 L 137.359375 139.742188 M 143.816406 201.101562 C 149.847656 201.324219 159.648438 202.90625 160.960938 210.726562 C 160.992188 211.046875 161.011719 211.367188 161.027344 211.691406 C 160.378906 203.054688 150.089844 201.339844 143.816406 201.101562 M 213.660156 120.457031 C 214.269531 130.128906 226.867188 131.21875 232.726562 131.203125 C 233.171875 131.203125 233.582031 131.195312 233.941406 131.183594 C 234.039062 131.1875 234.136719 131.195312 234.234375 131.199219 C 229.683594 131.371094 215.335938 131.15625 213.730469 121.574219 C 213.695312 121.207031 213.671875 120.832031 213.660156 120.457031 M 228.753906 211.519531 C 228.75 209.964844 228.824219 207.933594 229.113281 205.773438 C 229.917969 199.855469 232.371094 193.007812 239.339844 192.476562 C 239.621094 192.464844 239.90625 192.457031 240.191406 192.453125 L 243.855469 192.445312 C 236.703125 195.128906 231.222656 201.238281 229.40625 208.769531 C 229.070312 209.808594 228.882812 210.910156 228.859375 212.050781 C 228.824219 212.390625 228.800781 212.730469 228.789062 213.070312 C 228.769531 212.636719 228.757812 212.113281 228.753906 211.519531 " fill-opacity="1" fill-rule="nonzero"/></g></g></g></g><g clip-path="url(#467da0ae7a)"><g clip-path="url(#7941834ac7)"><g clip-path="url(#96c8c4de21)"><g clip-path="url(#d636eed374)"><path fill="#00867e" d="M 140.457031 201.105469 C 141.292969 201.074219 142.457031 201.054688 143.816406 201.101562 C 150.089844 201.339844 160.378906 203.054688 161.027344 211.691406 C 161.039062 211.964844 161.046875 212.242188 161.046875 212.523438 L 161.058594 216.195312 C 158.371094 209.007812 152.234375 203.503906 144.675781 201.707031 C 143.683594 201.394531 142.632812 201.210938 141.546875 201.183594 C 141.183594 201.148438 140.820312 201.121094 140.457031 201.105469 M 152.425781 119.144531 C 152.425781 119.136719 152.425781 119.125 152.425781 119.117188 C 152.441406 119.460938 152.453125 119.859375 152.457031 120.304688 C 152.449219 119.871094 152.4375 119.480469 152.425781 119.144531 M 213.644531 119.78125 L 213.632812 116.109375 C 216.332031 123.324219 222.507812 128.839844 230.109375 130.617188 L 230.117188 130.621094 C 231.046875 130.902344 232.027344 131.074219 233.042969 131.109375 C 233.34375 131.140625 233.640625 131.164062 233.941406 131.183594 C 233.582031 131.195312 233.171875 131.203125 232.726562 131.203125 C 226.867188 131.21875 214.269531 130.128906 213.660156 120.457031 C 213.652344 120.230469 213.644531 120.007812 213.644531 119.78125 M 229.113281 205.773438 C 229.875 200.117188 232.132812 193.59375 238.398438 192.539062 C 238.707031 192.511719 239.023438 192.488281 239.339844 192.476562 C 232.371094 193.007812 229.917969 199.855469 229.113281 205.773438 " fill-opacity="1" fill-rule="nonzero"/></g></g></g></g></svg>